<svg width="15" height="24" viewBox="0 0 15 24" fill="none" xmlns="http://www.w3.org/2000/svg">
<path d="M13.4987 4H9.4987C8.7623 4 8.16537 4.59696 8.16537 5.33333V9.33333H13.4987C13.6503 9.32997 13.7942 9.40053 13.8843 9.52253C13.9744 9.64453 13.9998 9.80267 13.952 9.94667L12.9654 12.88C12.8744 13.1492 12.6228 13.3312 12.3387 13.3333H8.16537V23.3333C8.16537 23.7015 7.86683 24 7.4987 24H4.16537C3.79718 24 3.4987 23.7015 3.4987 23.3333V13.3333H1.4987C1.13051 13.3333 0.832031 13.0348 0.832031 12.6667V10C0.832031 9.63187 1.13051 9.33333 1.4987 9.33333H3.4987V5.33333C3.4987 2.38781 5.88657 0 8.83203 0H13.4987C13.8668 0 14.1654 0.29848 14.1654 0.666667V3.33333C14.1654 3.70152 13.8668 4 13.4987 4Z" fill="url(#paint0_linear_4035_27882)"/>
<defs>
<linearGradient id="paint0_linear_4035_27882" x1="11.9546" y1="5.79527" x2="-15.7308" y2="6.15621" gradientUnits="userSpaceOnUse">
<stop stop-color="#CEB4E9"/>
<stop offset="1" stop-color="#7134B1" stop-opacity="0"/>
</linearGradient>
</defs>
</svg>
