<svg width="25" height="24" viewBox="0 0 25 24" fill="none" xmlns="http://www.w3.org/2000/svg">
<path fill-rule="evenodd" clip-rule="evenodd" d="M17.8333 0H7.16667C3.48477 0 0.5 2.98477 0.5 6.66667V17.3333C0.5 21.0152 3.48477 24 7.16667 24H17.8333C21.5152 24 24.5 21.0152 24.5 17.3333V6.66667C24.5 2.98477 21.5152 0 17.8333 0ZM22.1667 17.3333C22.1593 19.7235 20.2235 21.6593 17.8333 21.6667H7.16667C4.77647 21.6593 2.84065 19.7235 2.83333 17.3333V6.66667C2.84065 4.27647 4.77647 2.34065 7.16667 2.33333H17.8333C20.2235 2.34065 22.1593 4.27647 22.1667 6.66667V17.3333ZM18.8333 7C19.5697 7 20.1667 6.40304 20.1667 5.66667C20.1667 4.93029 19.5697 4.33333 18.8333 4.33333C18.0969 4.33333 17.5 4.93029 17.5 5.66667C17.5 6.40304 18.0969 7 18.8333 7ZM12.5 6C9.18629 6 6.5 8.68629 6.5 12C6.5 15.3137 9.18629 18 12.5 18C15.8137 18 18.5 15.3137 18.5 12C18.5036 10.4076 17.8725 8.87943 16.7465 7.75344C15.6205 6.62745 14.0924 5.99645 12.5 6ZM8.83333 12C8.83333 14.0251 10.4749 15.6667 12.5 15.6667C14.5251 15.6667 16.1667 14.0251 16.1667 12C16.1667 9.97493 14.5251 8.33333 12.5 8.33333C10.4749 8.33333 8.83333 9.97493 8.83333 12Z" fill="url(#paint0_linear_4035_27884)"/>
<defs>
<linearGradient id="paint0_linear_4035_27884" x1="20.5206" y1="5.79527" x2="-29.2941" y2="6.96429" gradientUnits="userSpaceOnUse">
<stop stop-color="#CEB4E9"/>
<stop offset="1" stop-color="#7134B1" stop-opacity="0"/>
</linearGradient>
</defs>
</svg>
